<svg width="14" height="12" viewBox="0 0 14 12" fill="none" xmlns="http://www.w3.org/2000/svg">
<path d="M9.085 7.5L7.79 8.795L8.5 9.5L10.5 7.5L8.5 5.5L7.79 6.205L9.085 7.5ZM4.915 7.5L6.21 6.205L5.5 5.5L3.5 7.5L5.5 9.5L6.21 8.795L4.915 7.5Z" fill="#CCCCCC"/>
<path d="M3.5 2.5C3.77614 2.5 4 2.27614 4 2C4 1.72386 3.77614 1.5 3.5 1.5C3.22386 1.5 3 1.72386 3 2C3 2.27614 3.22386 2.5 3.5 2.5Z" fill="#CCCCCC"/>
<path d="M2 2.5C2.27614 2.5 2.5 2.27614 2.5 2C2.5 1.72386 2.27614 1.5 2 1.5C1.72386 1.5 1.5 1.72386 1.5 2C1.5 2.27614 1.72386 2.5 2 2.5Z" fill="#CCCCCC"/>
<path d="M13 0H1C0.4485 0 0 0.4485 0 1V11C0 11.5515 0.4485 12 1 12H13C13.5515 12 14 11.5515 14 11V1C14 0.4485 13.5515 0 13 0ZM13 1V3H1V1H13ZM1 11V4H13V11H1Z" fill="#CCCCCC"/>
</svg>
