<svg width="14" height="11" viewBox="0 0 14 11" fill="none" xmlns="http://www.w3.org/2000/svg">
<path d="M0 10.6667V4C0 3.63333 0.130667 3.31933 0.392 3.058C0.653333 2.79667 0.967111 2.66622 1.33333 2.66667H3.33333V1.33333C3.33333 0.966668 3.464 0.652668 3.72533 0.391334C3.98667 0.130001 4.30044 -0.000443313 4.66667 1.13186e-06H8.66667C9.03333 1.13186e-06 9.34733 0.130668 9.60867 0.392001C9.87 0.653334 10.0004 0.967112 10 1.33333V2.66667H12C12.3667 2.66667 12.6807 2.79733 12.942 3.05867C13.2033 3.32 13.3338 3.63378 13.3333 4V10.6667H0ZM4 7.33333V8H2.66667V7.33333H1.33333V9.33333H12V7.33333H10.6667V8H9.33333V7.33333H4ZM1.33333 4V6H2.66667V5.33333H4V6H9.33333V5.33333H10.6667V6H12V4H1.33333ZM4.66667 2.66667H8.66667V1.33333H4.66667V2.66667Z" fill="#CCCCCC"/>
</svg>
