<svg width="16" height="14" viewBox="0 0 16 14" fill="none" xmlns="http://www.w3.org/2000/svg">
<path d="M14.7692 0H1.23077C0.904349 0 0.591298 0.12967 0.360484 0.360484C0.12967 0.591298 0 0.904349 0 1.23077V12.3077C0 12.6341 0.12967 12.9472 0.360484 13.178C0.591298 13.4088 0.904349 13.5385 1.23077 13.5385H2.26077C2.37724 13.5385 2.49132 13.5055 2.58977 13.4433C2.68822 13.381 2.76699 13.2921 2.81692 13.1869C3.11617 12.5551 3.58862 12.0213 4.17934 11.6474C4.77006 11.2736 5.45477 11.0751 6.15385 11.0751C6.85292 11.0751 7.53763 11.2736 8.12835 11.6474C8.71907 12.0213 9.19152 12.5551 9.49077 13.1869C9.5407 13.2921 9.61947 13.381 9.71792 13.4433C9.81637 13.5055 9.93046 13.5385 10.0469 13.5385H14.7692C15.0957 13.5385 15.4087 13.4088 15.6395 13.178C15.8703 12.9472 16 12.6341 16 12.3077V1.23077C16 0.904349 15.8703 0.591298 15.6395 0.360484C15.4087 0.12967 15.0957 0 14.7692 0ZM4.30769 8C4.30769 7.63487 4.41597 7.27793 4.61883 6.97433C4.82168 6.67073 5.11001 6.43411 5.44735 6.29438C5.78469 6.15465 6.15589 6.11809 6.51401 6.18932C6.87213 6.26055 7.20109 6.43638 7.45927 6.69457C7.71746 6.95276 7.89329 7.28171 7.96453 7.63983C8.03576 7.99795 7.9992 8.36915 7.85947 8.70649C7.71974 9.04383 7.48311 9.33216 7.17951 9.53502C6.87592 9.73788 6.51898 9.84615 6.15385 9.84615C5.66422 9.84615 5.19464 9.65165 4.84842 9.30543C4.5022 8.95921 4.30769 8.48963 4.30769 8ZM14.7692 12.3077H10.4177C9.9038 11.4242 9.12915 10.7213 8.2 10.2954C8.66584 9.8806 8.99461 9.33403 9.14274 8.72813C9.29087 8.12224 9.25136 7.48563 9.02945 6.9027C8.80753 6.31977 8.4137 5.81805 7.90015 5.46405C7.3866 5.11005 6.77759 4.92048 6.15385 4.92048C5.53011 4.92048 4.9211 5.11005 4.40754 5.46405C3.89399 5.81805 3.50016 6.31977 3.27825 6.9027C3.05633 7.48563 3.01682 8.12224 3.16495 8.72813C3.31308 9.33403 3.64186 9.8806 4.10769 10.2954C3.17854 10.7213 2.4039 11.4242 1.89 12.3077H1.23077V1.23077H14.7692V12.3077ZM2.46154 4.30769V3.07692C2.46154 2.91371 2.52637 2.75719 2.64178 2.64178C2.75719 2.52637 2.91371 2.46154 3.07692 2.46154H12.9231C13.0863 2.46154 13.2428 2.52637 13.3582 2.64178C13.4736 2.75719 13.5385 2.91371 13.5385 3.07692V10.4615C13.5385 10.6247 13.4736 10.7813 13.3582 10.8967C13.2428 11.0121 13.0863 11.0769 12.9231 11.0769H11.6923C11.5291 11.0769 11.3726 11.0121 11.2572 10.8967C11.1418 10.7813 11.0769 10.6247 11.0769 10.4615C11.0769 10.2983 11.1418 10.1418 11.2572 10.0264C11.3726 9.91099 11.5291 9.84615 11.6923 9.84615H12.3077V3.69231H3.69231V4.30769C3.69231 4.4709 3.62747 4.62743 3.51207 4.74284C3.39666 4.85824 3.24013 4.92308 3.07692 4.92308C2.91371 4.92308 2.75719 4.85824 2.64178 4.74284C2.52637 4.62743 2.46154 4.4709 2.46154 4.30769Z" fill="#CCCCCC"/>
</svg>
